<?xml version="1.0" encoding="utf-8"?>
<!-- Generator: Adobe Illustrator 24.0.0, SVG Export Plug-In . SVG Version: 6.00 Build 0)  -->
<svg version="1.1" id="Layer_1" xmlns="http://www.w3.org/2000/svg" xmlns:xlink="http://www.w3.org/1999/xlink" x="0px" y="0px"
	 viewBox="0 0 2654.2 946.9" style="enable-background:new 0 0 2654.2 946.9;" xml:space="preserve">
<style type="text/css">
	.st0{fill:#00BDFF;}
	.st1{stroke:#000000;stroke-width:5;stroke-miterlimit:10;}
</style>
<path class="st0" d="M463.5,504.6H207.6l-48.7,134.5H78.1L293.4,68h85L593,639.1h-80.9L463.5,504.6z M463.5,504.6l-128-352.4
	L207.6,504.6H463.5z"/>
<path class="st0" d="M1082.4,501.7c-23.7,43.7-58.5,77.6-104.4,101.5s-101.1,35.9-165.5,35.9H627.7V57.3h184.8
	C876.9,57.3,932,69,978,92.4c45.9,23.4,80.7,56.9,104.4,100.7c23.7,43.7,35.5,95.3,35.5,154.7C1117.9,406.6,1106,458,1082.4,501.7z
	 M980.9,512.8c40.2-39.1,60.2-94.1,60.2-165.1s-19.9-126.1-59.8-165.5c-39.9-39.3-98.1-59-174.5-59h-104v448.1h104
	C882.7,571.4,940.7,551.9,980.9,512.8z"/>
<path class="st0" d="M1585.1,633.9v5.2h444.7V578h-382.2C1629.7,599.3,1608.8,618,1585.1,633.9z"/>
<path class="st0" d="M2005,344.9v-57.8h-285.3c2.5,18.6,3.8,37.9,3.9,57.8H2005z"/>
<path class="st0" d="M2029.8,57.3h-444.7v4.1c24.3,16.1,45.6,35.1,63.8,57h380.9L2029.8,57.3L2029.8,57.3z"/>
<path class="st0" d="M2539.7,501.7c-23.7,43.7-58.5,77.6-104.4,101.5s-101.1,35.9-165.5,35.9H2085V57.3h184.8
	c64.4,0,119.5,11.7,165.5,35.1c45.9,23.4,80.7,56.9,104.4,100.7c23.7,43.7,35.5,95.3,35.5,154.7
	C2575.2,406.6,2563.4,458,2539.7,501.7z M2438.2,512.8c40.2-39.1,60.2-94.1,60.2-165.1s-19.9-126.1-59.8-165.5s-98.1-59-174.5-59
	h-104v448.1h104C2340,571.4,2398.1,551.9,2438.2,512.8z"/>
<path class="st0" d="M1632,501.7c-23.7,43.7-58.5,77.6-104.4,101.5s-101.1,35.9-165.5,35.9h-184.8V57.3h184.8
	c64.4,0,119.5,11.7,165.5,35.1c45.9,23.4,80.7,56.9,104.4,100.7c23.7,43.7,35.5,95.3,35.5,154.7C1667.5,406.6,1655.6,458,1632,501.7
	z M1530.5,512.8c40.2-39.1,60.2-94.1,60.2-165.1s-19.9-126.1-59.8-165.5c-39.9-39.3-98.1-59-174.5-59h-104v448.1h104
	C1432.3,571.4,1490.3,551.9,1530.5,512.8z"/>
<g>
	<path class="st1" d="M205.3,859.1c-6,11-14.7,19.5-26.3,25.4s-25.5,8.8-41.9,8.8H92.9V746.7h44.3c24.7,0,43.7,6.5,57.1,19.4
		c13.4,13,20.1,30.9,20.1,53.7C214.3,835,211.3,848.1,205.3,859.1z M183.3,864.3c10.8-10.6,16.2-25.4,16.2-44.4s-5.4-33.8-16.2-44.4
		c-10.8-10.6-26.5-15.9-47.2-15.9h-28.5v120.6h28.5C156.7,880.2,172.5,874.9,183.3,864.3z"/>
	<path class="st1" d="M338.8,746.7v146.5H324V746.7H338.8z"/>
	<path class="st1" d="M561.8,758c11.5,8.3,19.4,19.6,23.7,33.9h-15.2c-3.7-9.8-10.1-17.8-19-23.9c-8.9-6.1-19.5-9.1-31.7-9.1
		c-10.5,0-20.1,2.5-28.6,7.5s-15.2,12.1-20.1,21.4c-4.9,9.3-7.3,20.1-7.3,32.4c0,12.6,2.5,23.6,7.4,32.8
		c4.9,9.3,11.7,16.4,20.4,21.4c8.7,5,18.5,7.5,29.6,7.5c9.8,0,18.8-2.2,27-6.5c8.2-4.4,14.8-10.7,19.8-19c5.1-8.3,8-18.1,8.8-29.3
		h-60.9v-11h73.6V829c-1,12.5-4.5,23.7-10.5,33.7s-14.1,17.8-24.3,23.6s-21.8,8.6-34.8,8.6c-13.9,0-26.2-3.2-37-9.5
		s-19.2-15.1-25.2-26.5s-8.9-24.2-8.9-38.7c0-14.4,3-27.3,8.9-38.7c6-11.4,14.3-20.2,25-26.5s23-9.5,36.9-9.5
		C536.2,745.5,550.3,749.7,561.8,758z"/>
	<path class="st1" d="M713.9,746.7v146.5h-14.8V746.7H713.9z"/>
	<path class="st1" d="M914.5,746.7v11.8h-41.8v134.7h-14.5V758.6h-41.6v-11.8L914.5,746.7L914.5,746.7z"/>
	<path class="st1" d="M1101.8,857.5h-66.7l-13.3,35.8h-15.6l54-143.2h16.4l54,143.2h-15.8L1101.8,857.5z M1097.4,845.9l-28.9-79
		l-29.3,79H1097.4z"/>
	<path class="st1" d="M1249,881.6h53.2v11.6h-68V746.7h14.8V881.6z"/>
	<path class="st1" d="M1717.7,746.7l-37.8,146.5h-17.5l-36.6-125.5L1589,893.3h-17.5l-37.8-146.5h16.2l30.6,128.5l37-128.5h16.4
		l37,128.7l30.8-128.7L1717.7,746.7L1717.7,746.7z"/>
	<path class="st1" d="M1926.8,754.6c10.8,6.4,19.3,15.2,25.5,26.6c6.2,11.4,9.3,24.3,9.3,38.7s-3.1,27.3-9.3,38.8
		c-6.2,11.4-14.7,20.3-25.5,26.7s-23,9.6-36.6,9.6s-25.8-3.2-36.6-9.6c-10.8-6.4-19.3-15.3-25.5-26.7s-9.3-24.4-9.3-38.8
		c0-14.4,3.1-27.3,9.3-38.7c6.2-11.4,14.7-20.2,25.5-26.6c10.8-6.4,23-9.6,36.6-9.6C1903.8,745.1,1916,748.3,1926.8,754.6z
		 M1861.4,766.1c-8.5,5-15.2,12.1-20.2,21.4c-4.9,9.3-7.4,20.1-7.4,32.4c0,12.3,2.5,23.1,7.4,32.4c4.9,9.3,11.6,16.4,20.2,21.4
		c8.5,5,18.1,7.5,28.8,7.5c10.7,0,20.3-2.5,28.8-7.5s15.2-12.1,20.2-21.4c4.9-9.3,7.4-20.1,7.4-32.4c0-12.3-2.5-23.1-7.4-32.4
		c-4.9-9.3-11.6-16.4-20.2-21.4c-8.5-5-18.1-7.5-28.8-7.5S1869.9,761.1,1861.4,766.1z"/>
	<path class="st1" d="M2149.8,893.3l-40.1-61.1H2086v61.1h-14.8V746.7h44.9c16.5,0,28.8,3.9,36.9,11.6c8.1,7.8,12.2,18.2,12.2,31.4
		c0,12.2-3.4,21.9-10.3,29.1c-6.9,7.2-16.8,11.5-29.8,12.9l41.4,61.5L2149.8,893.3L2149.8,893.3z M2086,821.2h29.1
		c23.6,0,35.3-10.2,35.3-30.6c0-20.8-11.8-31.2-35.3-31.2H2086V821.2z"/>
	<path class="st1" d="M2287.4,881.6h53.2v11.6h-68V746.7h14.8V881.6z"/>
	<path class="st1" d="M2556.2,859.1c-6,11-14.7,19.5-26.3,25.4s-25.5,8.8-41.9,8.8h-44.3V746.7h44.3c24.7,0,43.7,6.5,57.1,19.4
		c13.4,13,20.1,30.9,20.1,53.7C2565.1,835,2562.1,848.1,2556.2,859.1z M2534.1,864.3c10.8-10.6,16.2-25.4,16.2-44.4
		s-5.4-33.8-16.2-44.4c-10.8-10.6-26.5-15.9-47.2-15.9h-28.5v120.6h28.5C2507.6,880.2,2523.3,874.9,2534.1,864.3z"/>
</g>
</svg>
